<?xml version="1.0" encoding="iso-8859-1"?>
<!-- Generator: Adobe Illustrator 16.0.0, SVG Export Plug-In . SVG Version: 6.00 Build 0)  -->
<!DOCTYPE svg PUBLIC "-//W3C//DTD SVG 1.1//EN" "http://www.w3.org/Graphics/SVG/1.1/DTD/svg11.dtd">
<svg xmlns="http://www.w3.org/2000/svg" xmlns:xlink="http://www.w3.org/1999/xlink" version="1.1" id="Capa_1" x="0px" y="0px" width="512px" height="512px" viewBox="0 0 43.19 43.19" style="enable-background:new 0 0 43.19 43.19;" xml:space="preserve">
<g>
	<path d="M43.033,12.172c-0.899,2.694-7.739,2.79-7.739,2.79c0.062,2.381-1.353,3.939-2.19,4.652c0-0.273,0-0.549,0-0.822   c-0.178-0.153-0.354-0.293-0.532-0.424v-1.804l-0.23-0.147c-0.378-0.24-0.766-0.432-1.157-0.598V14.22l-0.327-0.12   c-3.124-1.146-6.207,0.188-9.188,1.479c-3.585,1.553-6.974,3.02-10.363,0.369l-0.808-0.633v4.62   c-0.633-0.448-2.677-2.123-2.601-4.974c0,0-6.839-0.096-7.74-2.791c0,0-1.08,3.177,2.43,4.33c0,0-0.271,0.964-1.439,0.193   c0,0,0,2.6,4.5,2.405c0,0-0.09,1.349-1.439,1.155c0,0,2.489,2.829,6.29,1.625v5.062l0.192,0.149   c0.39,0.305,0.791,0.558,1.194,0.776v1.596l0.279,0.137c0.41,0.202,0.83,0.352,1.256,0.471c0,0.223,0,0.445,0,0.67   c6.562,1.977,13.125-7.271,19.688-1.591c0-2.382,0-4.765,0-7.147c3.569,0.89,5.88-1.747,5.88-1.747   c-1.351,0.191-1.438-1.155-1.438-1.155c4.5,0.192,4.5-2.405,4.5-2.405C40.88,17.464,40.61,16.5,40.61,16.5   C44.114,15.348,43.033,12.172,43.033,12.172z M11.883,17.995v8.718c-0.129-0.083-0.258-0.166-0.386-0.26v-9.152   c3.584,2.22,7.13,0.684,10.568-0.805c2.813-1.217,5.478-2.369,8.118-1.565v0.552c-0.588-0.15-1.192-0.238-1.828-0.238   c-2.267,0-4.514,0.973-6.687,1.912c-2.08,0.899-4.23,1.83-6.29,1.83c-0.992,0-1.899-0.207-2.773-0.639L11.883,17.995z    M23.261,26.927c-1.833,0.782-3.317-0.17-3.318-2.146c0.001-1.942,1.486-4.167,3.318-4.95c1.832-0.791,3.316,0.49,3.317,2.458   C26.577,24.24,25.094,26.138,23.261,26.927z M31.571,17.735c-6.052-3.238-12.104,4.468-18.153,2.647c0,2.884,0,5.771,0.001,8.653   c-0.18-0.061-0.359-0.125-0.535-0.201v-9.28c0.792,0.29,1.615,0.433,2.494,0.433c2.267,0,4.514-0.973,6.687-1.914   c2.08-0.898,4.23-1.83,6.29-1.83c1.156,0,2.212,0.287,3.217,0.877V17.735L31.571,17.735z M23.517,21.734c0,0.404,0,0.812,0,1.219   c0.058-0.021,0.113-0.043,0.17-0.063c0.573-0.194,0.958-0.224,1.159-0.11c0.2,0.11,0.301,0.406,0.301,0.885   c0,0.517-0.108,0.91-0.327,1.192c-0.219,0.283-0.6,0.521-1.145,0.738c-0.053,0.021-0.104,0.044-0.157,0.065   c0,0.183,0,0.362,0,0.547c-0.173,0.067-0.347,0.141-0.52,0.214c0-0.183,0-0.364,0-0.546c-0.049,0.02-0.098,0.039-0.146,0.059   c-0.542,0.229-0.923,0.298-1.144,0.193c-0.221-0.104-0.33-0.4-0.33-0.893c0.001-0.057,0.001-0.111,0.002-0.169   c0.256-0.108,0.513-0.222,0.769-0.331c0,0.027,0,0.057,0,0.086c0,0.299,0.046,0.473,0.135,0.521s0.29,0.007,0.601-0.125   c0.038-0.017,0.076-0.03,0.114-0.045c0-0.44,0-0.882,0-1.319c-0.606,0.256-1.02,0.344-1.24,0.251   c-0.222-0.092-0.333-0.396-0.333-0.907c0-0.498,0.112-0.891,0.334-1.168c0.222-0.279,0.635-0.554,1.239-0.808   c0-0.158,0-0.315,0-0.474c0.172-0.073,0.345-0.146,0.518-0.215c0,0.157,0,0.315,0,0.474c0.576-0.232,0.971-0.286,1.183-0.185   s0.316,0.396,0.317,0.874c0,0.036,0,0.073,0,0.109c-0.248,0.082-0.497,0.17-0.743,0.263c-0.001-0.026-0.003-0.058-0.004-0.086   c0-0.36-0.21-0.465-0.632-0.297C23.597,21.701,23.557,21.718,23.517,21.734z M22.996,21.943c-0.036,0.019-0.072,0.033-0.109,0.051   c-0.456,0.193-0.685,0.486-0.684,0.871c0,0.403,0.227,0.508,0.681,0.315c0.004-0.003,0.042-0.017,0.113-0.043   C22.996,22.74,22.996,22.342,22.996,21.943z M23.516,24.957c0.037-0.014,0.074-0.028,0.111-0.043   c0.493-0.198,0.74-0.515,0.74-0.969c0-0.246-0.057-0.391-0.165-0.429c-0.109-0.037-0.338,0.011-0.687,0.149   C23.516,24.098,23.516,24.529,23.516,24.957z" fill="#108738"/>
</g>
<g>
</g>
<g>
</g>
<g>
</g>
<g>
</g>
<g>
</g>
<g>
</g>
<g>
</g>
<g>
</g>
<g>
</g>
<g>
</g>
<g>
</g>
<g>
</g>
<g>
</g>
<g>
</g>
<g>
</g>
</svg>
